<mxfile host="app.diagrams.net" agent="Mozilla/5.0 (Windows NT 10.0; Win64; x64) AppleWebKit/537.36 (KHTML, like Gecko) Chrome/136.0.0.0 Safari/537.36" version="24.8.6">
  <diagram name="MCD - Application Plantes" id="0e63cba5-6514-11ee-bd75-c5b6a8c5d1cb">
    <mxGraphModel dx="1290" dy="522" grid="1" gridSize="10" guides="1" tooltips="1" connect="1" arrows="1" fold="1" page="1" pageScale="1" pageWidth="827" pageHeight="1169" math="0" shadow="0">
      <root>
        <mxCell id="0" />
        <mxCell id="1" parent="0" />
        <mxCell id="foyer" value="Foyer&#xa;- (PK)&#xa;- nom_foyer" style="shape=swimlane" parent="1" vertex="1">
          <mxGeometry x="110" y="100" width="160" height="80" as="geometry" />
        </mxCell>
        <mxCell id="utilisateur" value="Utilisateur&#xa;- id_utilisateur (PK)&#xa;- nom&#xa;- prénom&#xa;- email&#xa;- mot_de_passe&#xa;- foyer_id (FK)" style="shape=swimlane" parent="1" vertex="1">
          <mxGeometry x="330" y="80" width="200" height="120" as="geometry" />
        </mxCell>
        <mxCell id="plante" value="Plante&#xa;- id_plante (PK)&#xa;- nom&#xa;- type&#xa;- date_ajout&#xa;- photo&#xa;- utilisateur_id (FK)" style="shape=swimlane" parent="1" vertex="1">
          <mxGeometry x="320" y="250" width="200" height="120" as="geometry" />
        </mxCell>
        <mxCell id="entretien" value="Entretien&#xa;- id_entretien (PK)&#xa;- type_entretien&#xa;- date_programmée&#xa;- statut&#xa;- plante_id (FK)&#xa;- utilisateur_id (FK)" style="shape=swimlane" parent="1" vertex="1">
          <mxGeometry x="580" y="250" width="200" height="120" as="geometry" />
        </mxCell>
        <mxCell id="note" value="Note&#xa;- id_note (PK)&#xa;- contenu&#xa;- date_note&#xa;- plante_id (FK)&#xa;- utilisateur_id (FK)" style="shape=swimlane" parent="1" vertex="1">
          <mxGeometry x="580" y="100" width="200" height="100" as="geometry" />
        </mxCell>
        <mxCell id="foyer-utilisateur" style="edgeStyle=orthogonalEdgeStyle;rounded=0;" parent="1" source="foyer" target="utilisateur" edge="1">
          <mxGeometry relative="1" as="geometry" />
        </mxCell>
        <mxCell id="utilisateur-plante" style="edgeStyle=orthogonalEdgeStyle;rounded=0;" parent="1" source="utilisateur" target="plante" edge="1">
          <mxGeometry relative="1" as="geometry" />
        </mxCell>
        <mxCell id="plante-entretien" style="edgeStyle=orthogonalEdgeStyle;rounded=0;" parent="1" source="plante" target="entretien" edge="1">
          <mxGeometry relative="1" as="geometry" />
        </mxCell>
        <mxCell id="plante-note" style="edgeStyle=orthogonalEdgeStyle;rounded=0;" parent="1" source="plante" target="note" edge="1">
          <mxGeometry relative="1" as="geometry" />
        </mxCell>
        <mxCell id="utilisateur-entretien" style="edgeStyle=orthogonalEdgeStyle;rounded=0;" parent="1" source="utilisateur" target="entretien" edge="1">
          <mxGeometry relative="1" as="geometry" />
        </mxCell>
        <mxCell id="utilisateur-note" style="edgeStyle=orthogonalEdgeStyle;rounded=0;" parent="1" source="utilisateur" target="note" edge="1">
          <mxGeometry relative="1" as="geometry" />
        </mxCell>
        <mxCell id="P2E0-TPXWeukpb1Bq9LF-1" value="id_foyer&amp;nbsp;" style="text;html=1;align=center;verticalAlign=middle;resizable=0;points=[];autosize=1;strokeColor=none;fillColor=none;" vertex="1" parent="1">
          <mxGeometry x="105" y="148" width="70" height="30" as="geometry" />
        </mxCell>
        <mxCell id="P2E0-TPXWeukpb1Bq9LF-16" value="User" style="swimlane;fontStyle=0;childLayout=stackLayout;horizontal=1;startSize=30;horizontalStack=0;resizeParent=1;resizeParentMax=0;resizeLast=0;collapsible=1;marginBottom=0;whiteSpace=wrap;html=1;" vertex="1" parent="1">
          <mxGeometry x="290" y="390" width="140" height="180" as="geometry" />
        </mxCell>
        <mxCell id="P2E0-TPXWeukpb1Bq9LF-17" value="id_user" style="text;strokeColor=none;fillColor=none;align=left;verticalAlign=middle;spacingLeft=4;spacingRight=4;overflow=hidden;points=[[0,0.5],[1,0.5]];portConstraint=eastwest;rotatable=0;whiteSpace=wrap;html=1;" vertex="1" parent="P2E0-TPXWeukpb1Bq9LF-16">
          <mxGeometry y="30" width="140" height="30" as="geometry" />
        </mxCell>
        <mxCell id="P2E0-TPXWeukpb1Bq9LF-18" value="name" style="text;strokeColor=none;fillColor=none;align=left;verticalAlign=middle;spacingLeft=4;spacingRight=4;overflow=hidden;points=[[0,0.5],[1,0.5]];portConstraint=eastwest;rotatable=0;whiteSpace=wrap;html=1;" vertex="1" parent="P2E0-TPXWeukpb1Bq9LF-16">
          <mxGeometry y="60" width="140" height="30" as="geometry" />
        </mxCell>
        <mxCell id="P2E0-TPXWeukpb1Bq9LF-20" value="firstname" style="text;strokeColor=none;fillColor=none;align=left;verticalAlign=middle;spacingLeft=4;spacingRight=4;overflow=hidden;points=[[0,0.5],[1,0.5]];portConstraint=eastwest;rotatable=0;whiteSpace=wrap;html=1;" vertex="1" parent="P2E0-TPXWeukpb1Bq9LF-16">
          <mxGeometry y="90" width="140" height="30" as="geometry" />
        </mxCell>
        <mxCell id="P2E0-TPXWeukpb1Bq9LF-21" value="email" style="text;strokeColor=none;fillColor=none;align=left;verticalAlign=middle;spacingLeft=4;spacingRight=4;overflow=hidden;points=[[0,0.5],[1,0.5]];portConstraint=eastwest;rotatable=0;whiteSpace=wrap;html=1;" vertex="1" parent="P2E0-TPXWeukpb1Bq9LF-16">
          <mxGeometry y="120" width="140" height="30" as="geometry" />
        </mxCell>
        <mxCell id="P2E0-TPXWeukpb1Bq9LF-23" value="password" style="text;strokeColor=none;fillColor=none;align=left;verticalAlign=middle;spacingLeft=4;spacingRight=4;overflow=hidden;points=[[0,0.5],[1,0.5]];portConstraint=eastwest;rotatable=0;whiteSpace=wrap;html=1;" vertex="1" parent="P2E0-TPXWeukpb1Bq9LF-16">
          <mxGeometry y="150" width="140" height="30" as="geometry" />
        </mxCell>
        <mxCell id="P2E0-TPXWeukpb1Bq9LF-24" value="Plant" style="swimlane;fontStyle=0;childLayout=stackLayout;horizontal=1;startSize=30;horizontalStack=0;resizeParent=1;resizeParentMax=0;resizeLast=0;collapsible=1;marginBottom=0;whiteSpace=wrap;html=1;" vertex="1" parent="1">
          <mxGeometry x="290" y="630" width="140" height="180" as="geometry" />
        </mxCell>
        <mxCell id="P2E0-TPXWeukpb1Bq9LF-25" value="id_plant" style="text;strokeColor=none;fillColor=none;align=left;verticalAlign=middle;spacingLeft=4;spacingRight=4;overflow=hidden;points=[[0,0.5],[1,0.5]];portConstraint=eastwest;rotatable=0;whiteSpace=wrap;html=1;" vertex="1" parent="P2E0-TPXWeukpb1Bq9LF-24">
          <mxGeometry y="30" width="140" height="30" as="geometry" />
        </mxCell>
        <mxCell id="P2E0-TPXWeukpb1Bq9LF-26" value="name" style="text;strokeColor=none;fillColor=none;align=left;verticalAlign=middle;spacingLeft=4;spacingRight=4;overflow=hidden;points=[[0,0.5],[1,0.5]];portConstraint=eastwest;rotatable=0;whiteSpace=wrap;html=1;" vertex="1" parent="P2E0-TPXWeukpb1Bq9LF-24">
          <mxGeometry y="60" width="140" height="30" as="geometry" />
        </mxCell>
        <mxCell id="P2E0-TPXWeukpb1Bq9LF-27" value="surname" style="text;strokeColor=none;fillColor=none;align=left;verticalAlign=middle;spacingLeft=4;spacingRight=4;overflow=hidden;points=[[0,0.5],[1,0.5]];portConstraint=eastwest;rotatable=0;whiteSpace=wrap;html=1;" vertex="1" parent="P2E0-TPXWeukpb1Bq9LF-24">
          <mxGeometry y="90" width="140" height="30" as="geometry" />
        </mxCell>
        <mxCell id="P2E0-TPXWeukpb1Bq9LF-28" value="type" style="text;strokeColor=none;fillColor=none;align=left;verticalAlign=middle;spacingLeft=4;spacingRight=4;overflow=hidden;points=[[0,0.5],[1,0.5]];portConstraint=eastwest;rotatable=0;whiteSpace=wrap;html=1;" vertex="1" parent="P2E0-TPXWeukpb1Bq9LF-24">
          <mxGeometry y="120" width="140" height="30" as="geometry" />
        </mxCell>
        <mxCell id="P2E0-TPXWeukpb1Bq9LF-29" value="photo" style="text;strokeColor=none;fillColor=none;align=left;verticalAlign=middle;spacingLeft=4;spacingRight=4;overflow=hidden;points=[[0,0.5],[1,0.5]];portConstraint=eastwest;rotatable=0;whiteSpace=wrap;html=1;" vertex="1" parent="P2E0-TPXWeukpb1Bq9LF-24">
          <mxGeometry y="150" width="140" height="30" as="geometry" />
        </mxCell>
        <mxCell id="P2E0-TPXWeukpb1Bq9LF-30" value="Tasks" style="swimlane;fontStyle=0;childLayout=stackLayout;horizontal=1;startSize=30;horizontalStack=0;resizeParent=1;resizeParentMax=0;resizeLast=0;collapsible=1;marginBottom=0;whiteSpace=wrap;html=1;" vertex="1" parent="1">
          <mxGeometry x="540" y="645" width="140" height="150" as="geometry" />
        </mxCell>
        <mxCell id="P2E0-TPXWeukpb1Bq9LF-31" value="id_task" style="text;strokeColor=none;fillColor=none;align=left;verticalAlign=middle;spacingLeft=4;spacingRight=4;overflow=hidden;points=[[0,0.5],[1,0.5]];portConstraint=eastwest;rotatable=0;whiteSpace=wrap;html=1;" vertex="1" parent="P2E0-TPXWeukpb1Bq9LF-30">
          <mxGeometry y="30" width="140" height="30" as="geometry" />
        </mxCell>
        <mxCell id="P2E0-TPXWeukpb1Bq9LF-32" value="type&amp;nbsp;" style="text;strokeColor=none;fillColor=none;align=left;verticalAlign=middle;spacingLeft=4;spacingRight=4;overflow=hidden;points=[[0,0.5],[1,0.5]];portConstraint=eastwest;rotatable=0;whiteSpace=wrap;html=1;" vertex="1" parent="P2E0-TPXWeukpb1Bq9LF-30">
          <mxGeometry y="60" width="140" height="30" as="geometry" />
        </mxCell>
        <mxCell id="P2E0-TPXWeukpb1Bq9LF-33" value="schedulled_date" style="text;strokeColor=none;fillColor=none;align=left;verticalAlign=middle;spacingLeft=4;spacingRight=4;overflow=hidden;points=[[0,0.5],[1,0.5]];portConstraint=eastwest;rotatable=0;whiteSpace=wrap;html=1;" vertex="1" parent="P2E0-TPXWeukpb1Bq9LF-30">
          <mxGeometry y="90" width="140" height="30" as="geometry" />
        </mxCell>
        <mxCell id="P2E0-TPXWeukpb1Bq9LF-34" value="status" style="text;strokeColor=none;fillColor=none;align=left;verticalAlign=middle;spacingLeft=4;spacingRight=4;overflow=hidden;points=[[0,0.5],[1,0.5]];portConstraint=eastwest;rotatable=0;whiteSpace=wrap;html=1;" vertex="1" parent="P2E0-TPXWeukpb1Bq9LF-30">
          <mxGeometry y="120" width="140" height="30" as="geometry" />
        </mxCell>
        <mxCell id="P2E0-TPXWeukpb1Bq9LF-37" value="Household" style="swimlane;fontStyle=0;childLayout=stackLayout;horizontal=1;startSize=30;horizontalStack=0;resizeParent=1;resizeParentMax=0;resizeLast=0;collapsible=1;marginBottom=0;whiteSpace=wrap;html=1;" vertex="1" parent="1">
          <mxGeometry x="80" y="465" width="140" height="90" as="geometry" />
        </mxCell>
        <mxCell id="P2E0-TPXWeukpb1Bq9LF-38" value="id_household" style="text;strokeColor=none;fillColor=none;align=left;verticalAlign=middle;spacingLeft=4;spacingRight=4;overflow=hidden;points=[[0,0.5],[1,0.5]];portConstraint=eastwest;rotatable=0;whiteSpace=wrap;html=1;" vertex="1" parent="P2E0-TPXWeukpb1Bq9LF-37">
          <mxGeometry y="30" width="140" height="30" as="geometry" />
        </mxCell>
        <mxCell id="P2E0-TPXWeukpb1Bq9LF-39" value="name" style="text;strokeColor=none;fillColor=none;align=left;verticalAlign=middle;spacingLeft=4;spacingRight=4;overflow=hidden;points=[[0,0.5],[1,0.5]];portConstraint=eastwest;rotatable=0;whiteSpace=wrap;html=1;" vertex="1" parent="P2E0-TPXWeukpb1Bq9LF-37">
          <mxGeometry y="60" width="140" height="30" as="geometry" />
        </mxCell>
        <mxCell id="P2E0-TPXWeukpb1Bq9LF-42" value="" style="endArrow=none;html=1;rounded=0;exitX=0.5;exitY=0;exitDx=0;exitDy=0;entryX=0.497;entryY=0.92;entryDx=0;entryDy=0;entryPerimeter=0;" edge="1" parent="1" source="P2E0-TPXWeukpb1Bq9LF-24" target="P2E0-TPXWeukpb1Bq9LF-23">
          <mxGeometry width="50" height="50" relative="1" as="geometry">
            <mxPoint x="390" y="620" as="sourcePoint" />
            <mxPoint x="440" y="570" as="targetPoint" />
          </mxGeometry>
        </mxCell>
        <mxCell id="P2E0-TPXWeukpb1Bq9LF-43" value="" style="endArrow=none;html=1;rounded=0;exitX=1.009;exitY=0.9;exitDx=0;exitDy=0;exitPerimeter=0;" edge="1" parent="1" source="P2E0-TPXWeukpb1Bq9LF-38">
          <mxGeometry width="50" height="50" relative="1" as="geometry">
            <mxPoint x="240" y="512" as="sourcePoint" />
            <mxPoint x="290" y="522" as="targetPoint" />
          </mxGeometry>
        </mxCell>
        <mxCell id="P2E0-TPXWeukpb1Bq9LF-44" value="" style="endArrow=none;html=1;rounded=0;exitX=0.994;exitY=-0.04;exitDx=0;exitDy=0;exitPerimeter=0;entryX=0;entryY=0.5;entryDx=0;entryDy=0;" edge="1" parent="1" source="P2E0-TPXWeukpb1Bq9LF-27" target="P2E0-TPXWeukpb1Bq9LF-32">
          <mxGeometry width="50" height="50" relative="1" as="geometry">
            <mxPoint x="451" y="759.5" as="sourcePoint" />
            <mxPoint x="520" y="759.5" as="targetPoint" />
          </mxGeometry>
        </mxCell>
      </root>
    </mxGraphModel>
  </diagram>
</mxfile>
